<svg xmlns="http://www.w3.org/2000/svg" class="ionicon" viewBox="0 0 512 512" fill="#fff">
	<path fill-rule="evenodd" clip-rule="evenodd" d="M32 72C32 53.9 46.9 40 65 40h382c18.1 0 33 13.9 33 32v368c0 18.1-13.9 32-32 32H65c-18.1 0-33-13.9-33-32V72zM135 184h56v224h-56V184zm28-64c20.4 0 37-16.6 37-37s-16.6-37-37-37-37 16.6-37 37 16.6 37 37 37zm123 64h55v26.5c11.8-15.9 29.4-25.5 51.3-25.5 38.4 0 63.7 25.4 63.7 71.7v125.3h-56v-118c0-18.2-8.7-30.3-25.2-30.3-16.3 0-25.8 10.9-25.8 30.3v118h-56V184z"/>
</svg>
